<svg viewBox="0 0 32 32" xmlns="http://www.w3.org/2000/svg"><path d="M-31 54.014c-1.645 0-3 1.355-3 3v14c0 1.644 1.355 3 3 3h2a1 1 0 0 0 1-1 1 1 0 0 0-1-1h-2c-.571 0-1-.429-1-1v-14c0-.572.429-1 1-1h14c.571 0 1 .428 1 1v2a1 1 0 0 0 1 1 1 1 0 0 0 1-1v-2c0-1.645-1.355-3-3-3z" style="-inkscape-stroke:none" transform="translate(36 -52)" color="#000000" fill="#0593ff" fill-opacity="1" fill-rule="evenodd" stroke-linecap="round" stroke-linejoin="round" stroke-miterlimit="4.1" class="fill-002cba"></path><path d="M-27 58.014c-1.645 0-3 1.355-3 3v14c0 1.644 1.355 3 3 3h2a1 1 0 0 0 1-1 1 1 0 0 0-1-1h-2c-.571 0-1-.429-1-1v-14c0-.572.429-1 1-1h14c.571 0 1 .428 1 1v2a1 1 0 0 0 1 1 1 1 0 0 0 1-1v-2c0-1.645-1.355-3-3-3z" style="-inkscape-stroke:none" transform="translate(36 -52)" color="#000000" fill="#0593ff" fill-opacity="1" fill-rule="evenodd" stroke-linecap="round" stroke-linejoin="round" stroke-miterlimit="4.1" class="fill-002cba"></path><path d="M-23 62.014c-1.645 0-3 1.355-3 3v14c0 1.644 1.355 3 3 3h14c1.645 0 3-1.356 3-3v-14c0-1.645-1.355-3-3-3zm0 2h14c.571 0 1 .428 1 1v14c0 .571-.429 1-1 1h-14c-.571 0-1-.429-1-1v-14c0-.572.429-1 1-1z" style="-inkscape-stroke:none" transform="translate(36 -52)" color="#000000" fill="#0593ff" fill-opacity="1" fill-rule="evenodd" stroke-linecap="round" stroke-linejoin="round" stroke-miterlimit="4.1" class="fill-002cba"></path><path d="M-16 66.014a1 1 0 0 0-1 1v10a1 1 0 0 0 1 1 1 1 0 0 0 1-1v-10a1 1 0 0 0-1-1z" style="-inkscape-stroke:none" transform="translate(36 -52)" color="#000000" fill="#d8e1ef" fill-opacity="1" fill-rule="evenodd" stroke-linecap="round" stroke-linejoin="round" stroke-miterlimit="4.1" class="fill-00c89f"></path><path d="M-21 71.014a1 1 0 0 0-1 1 1 1 0 0 0 1 1h10a1 1 0 0 0 1-1 1 1 0 0 0-1-1z" style="-inkscape-stroke:none" transform="translate(36 -52)" color="#000000" fill="#d8e1ef" fill-opacity="1" fill-rule="evenodd" stroke-linecap="round" stroke-linejoin="round" stroke-miterlimit="4.1" class="fill-00c89f"></path></svg>