<?xml version="1.0" ?><svg xmlns="http://www.w3.org/2000/svg" xmlns:xlink="http://www.w3.org/1999/xlink" version="1.1" viewBox="0 0 512 512" style="enable-background:new 0 0 512 512;" xml:space="preserve"><g id="_x33_8_x2C__Bar_Chart_x2C__business_and_finance_x2C__infographic_x2C__horizontal_x2C__statistics_x2C__diagram"><g><g><path style="fill:#283954;" d="M11,140.991h70.01c5.522,0,10-4.478,10-10s-4.478-10-10-10H21v-40h60.01c5.522,0,10-4.478,10-10     s-4.478-10-10-10H11c-5.522,0-10,4.478-10,10v60C1,136.513,5.478,140.991,11,140.991z"/><path style="fill:#283954;" d="M501,60.991H160.99c-5.522,0-10,4.478-10,10s4.478,10,10,10H491v40H160.99     c-5.522,0-10,4.478-10,10s4.478,10,10,10H501c5.522,0,10-4.478,10-10v-60C511,65.469,506.522,60.991,501,60.991z"/><path style="fill:#283954;" d="M501,215.991h-70.01c-5.522,0-10,4.478-10,10s4.478,10,10,10H491v40h-60.01     c-5.522,0-10,4.478-10,10s4.478,10,10,10H501c5.522,0,10-4.478,10-10v-60C511,220.469,506.522,215.991,501,215.991z"/><path style="fill:#283954;" d="M11,295.991h340.01c5.522,0,10-4.478,10-10s-4.478-10-10-10H21v-40h330.01c5.522,0,10-4.478,10-10     s-4.478-10-10-10H11c-5.522,0-10,4.478-10,10v60C1,291.513,5.478,295.991,11,295.991z"/><path style="fill:#283954;" d="M501,370.991H160.99c-5.522,0-10,4.478-10,10s4.478,10,10,10H491v40H160.99     c-5.522,0-10,4.478-10,10s4.478,10,10,10H501c5.522,0,10-4.478,10-10v-60C511,375.469,506.522,370.991,501,370.991z"/><path style="fill:#283954;" d="M81.01,390.991c5.522,0,10-4.478,10-10s-4.478-10-10-10H11c-5.522,0-10,4.478-10,10v60     c0,5.522,4.478,10,10,10h70.01c5.522,0,10-4.478,10-10s-4.478-10-10-10H21v-40H81.01z"/></g><g><path style="fill:#5596FB;" d="M121,160.991c33.953,0,60-27.626,60-60c0-32.438-26.105-60-60-60c-33.953,0-60,27.626-60,60     C61,133.45,87.124,160.991,121,160.991z M121,60.991c22.585,0,40,18.376,40,40c0,21.623-17.412,40-40,40     c-12.698,0-24.358-5.833-31.992-16.003c-0.003-0.003-0.005-0.006-0.007-0.009c-5.342-7.1-8.011-15.544-8.01-23.988     C80.993,79.388,98.41,60.991,121,60.991z"/><path style="fill:#5596FB;" d="M438.988,219.988c-24.041-32.029-71.952-32.008-95.97-0.009     C335.156,230.43,331,242.883,331,255.991c0,32.438,26.105,60,60,60c33.953,0,60-27.626,60-60     C451,242.887,446.846,230.436,438.988,219.988z M391,295.991c-22.585,0-40-18.376-40-40c0-8.736,2.767-17.031,8.008-23.997     c16.031-21.357,47.959-21.349,63.984,0c0.003,0.003,0.005,0.006,0.007,0.009c5.234,6.957,8.001,15.252,8.001,23.988     C431,277.614,413.588,295.991,391,295.991z"/><path style="fill:#5596FB;" d="M73.019,374.979c-16.219,21.557-15.851,50.947-0.007,72.015     c24.041,32.029,71.952,32.008,95.97,0.009c16.192-21.521,15.881-50.915,0.007-72.015     C144.947,342.959,97.036,342.98,73.019,374.979z M152.992,434.988c-16.031,21.357-47.96,21.349-63.984,0     c-0.003-0.003-0.005-0.006-0.007-0.009c-10.687-14.204-10.676-33.787,0.007-47.985c16.045-21.375,47.974-21.329,63.991,0.009     C163.686,401.206,163.675,420.79,152.992,434.988z"/></g></g></g><g id="Layer_1"/></svg>