<svg viewBox="0 0 32 32" xml:space="preserve" xmlns="http://www.w3.org/2000/svg" enable-background="new 0 0 32 32"><path d="M2 11.5V29c0 .55.45 1 1 1h26c.55 0 1-.45 1-1V11.5H2zm5 12.429h3V19.25a1 1 0 1 1 2 0v4.679h3v-7.518a1 1 0 0 1 2 0v7.518h3V13.571a1 1 0 1 1 2 0v10.357h3a1 1 0 1 1 0 2H7a1 1 0 1 1 0-1.999z" fill="#d8e1ef" class="fill-e4edf2"></path><path d="M29 2H3a1 1 0 0 0-1 1v8.5h28V3a1 1 0 0 0-1-1zm-3.25 5.25H22.5a1 1 0 1 1 0-2h3.25a1 1 0 1 1 0 2z" fill="#0593ff" class="fill-55c1fa"></path><path d="M25.75 5.25H22.5a1 1 0 1 0 0 2h3.25a1 1 0 1 0 0-2z" fill="#8f97a3" class="fill-393b3d"></path><path d="M12 19.25a1 1 0 1 0-2 0v4.679h2V19.25z" fill="#8f97a3" class="fill-f25949"></path><path d="M17 16.411a1 1 0 0 0-2 0v7.518h2v-7.518z" fill="#8f97a3" class="fill-16f293"></path><path d="M22 13.571a1 1 0 1 0-2 0v10.357h2V13.571z" fill="#8f97a3" class="fill-fbc34e"></path><path d="M7 25.929h18a1 1 0 1 0 0-2H7a1 1 0 1 0 0 2z" fill="#8f97a3" class="fill-393b3d"></path></svg>