<svg fill="none" viewBox="0 0 48 48" xmlns="http://www.w3.org/2000/svg"><path fill="#ffffff" fill-opacity=".01" d="M0 0h48v48H0z" class="fill-ffffff"></path><ellipse cx="24" cy="11" fill="#0593ff" rx="20" ry="6" stroke="#8f97a3" stroke-linecap="round" stroke-linejoin="round" stroke-width="4" class="fill-2f88ff stroke-000000"></ellipse><path d="M10.77 15.5C6.62 16.6 4 18.208 4 20c0 3.314 8.954 6 20 6s20-2.686 20-6c0-1.792-2.619-3.4-6.77-4.5-3.526.933-8.158 1.5-13.23 1.5-5.072 0-9.704-.567-13.23-1.5Z" fill="#0593ff" stroke="#8f97a3" stroke-linecap="round" stroke-linejoin="round" stroke-width="4" class="fill-2f88ff stroke-000000"></path><path d="M10.77 24.5C6.62 25.6 4 27.208 4 29c0 3.314 8.954 6 20 6s20-2.686 20-6c0-1.792-2.619-3.4-6.77-4.5-3.526.933-8.158 1.5-13.23 1.5-5.072 0-9.704-.567-13.23-1.5Z" fill="#0593ff" stroke="#8f97a3" stroke-linecap="round" stroke-linejoin="round" stroke-width="4" class="fill-2f88ff stroke-000000"></path><path d="M10.77 33.5C6.62 34.6 4 36.208 4 38c0 3.314 8.954 6 20 6s20-2.686 20-6c0-1.792-2.619-3.4-6.77-4.5-3.526.934-8.158 1.5-13.23 1.5-5.072 0-9.704-.566-13.23-1.5Z" fill="#0593ff" stroke="#8f97a3" stroke-linecap="round" stroke-linejoin="round" stroke-width="4" class="fill-2f88ff stroke-000000"></path></svg>