<svg viewBox="0 0 32 32" xmlns="http://www.w3.org/2000/svg"><path d="M-31 246c-1.645 0-3 1.355-3 3v22c0 1.645 1.355 3 3 3h16c1.645 0 3-1.355 3-3v-1.086a5.975 5.975 0 0 1-1 .086c-.341 0-.674-.03-1-.086V271c0 .564-.436 1-1 1h-16c-.564 0-1-.436-1-1v-22c0-.564.436-1 1-1h16c.564 0 1 .436 1 1v9.086a5.975 5.975 0 0 1 2-.002V249c0-1.645-1.355-3-3-3z" style="-inkscape-stroke:none" transform="translate(36 -244)" color="#000000" fill="#8f97a3" fill-opacity="1" fill-rule="evenodd" stroke-linecap="round" stroke-linejoin="round" stroke-miterlimit="4.1" class="fill-002cba"></path><path d="M-26.5 260a1 1 0 0 0-1 1v.02c-.891.41-1.5 1.344-1.5 2.38 0 1.39 1.095 2.6 2.5 2.6.252 0 .5.223.5.6s-.248.6-.5.6c-.168 0-.318-.091-.418-.274a1 1 0 0 0-1.36-.397 1 1 0 0 0-.394 1.358c.26.475.673.865 1.172 1.093v.02a1 1 0 1 0 2 0v-.02c.891-.41 1.5-1.344 1.5-2.38 0-1.39-1.095-2.6-2.5-2.6-.252 0-.5-.223-.5-.6s.248-.6.5-.6c.169 0 .32.092.42.276a1 1 0 0 0 1.355.403 1 1 0 0 0 .403-1.358 2.555 2.555 0 0 0-1.178-1.101V261a1 1 0 0 0-1-1zM-28 250a1 1 0 0 0-1 1 1 1 0 0 0 1 1h10a1 1 0 0 0 1-1 1 1 0 0 0-1-1zM-28 253a1 1 0 0 0-1 1 1 1 0 0 0 1 1h10a1 1 0 0 0 1-1 1 1 0 0 0-1-1zM-28 256a1 1 0 0 0-1 1 1 1 0 0 0 1 1h10a1 1 0 0 0 1-1 1 1 0 0 0-1-1z" style="-inkscape-stroke:none" transform="translate(36 -244)" color="#000000" fill="#8f97a3" fill-opacity="1" fill-rule="evenodd" stroke-linecap="round" stroke-linejoin="round" stroke-miterlimit="4.1" class="fill-002cba"></path><path d="M-13 258c-3.302 0-6 2.698-6 6s2.698 6 6 6 6-2.698 6-6a1 1 0 0 0-1-1 1 1 0 0 0-1 1c0 2.221-1.779 4-4 4s-4-1.779-4-4 1.779-4 4-4c.573 0 1.113.12 1.604.334a1 1 0 0 0 1.316-.514 1 1 0 0 0-.514-1.318A5.991 5.991 0 0 0-13 258Z" style="-inkscape-stroke:none" transform="translate(36 -244)" color="#000000" fill="#0593ff" fill-opacity="1" fill-rule="evenodd" stroke-linecap="round" stroke-linejoin="round" stroke-miterlimit="4.1" class="fill-00c89f"></path><path d="M-7 258a1 1 0 0 0-.707.293L-13 263.586l-1.293-1.293a1 1 0 0 0-1.414 0 1 1 0 0 0 0 1.414l2 2a1 1 0 0 0 1.414 0l6-6a1 1 0 0 0 0-1.414A1 1 0 0 0-7 258Z" style="-inkscape-stroke:none" transform="translate(36 -244)" color="#000000" fill="#0593ff" fill-opacity="1" fill-rule="evenodd" stroke-linecap="round" stroke-linejoin="round" stroke-miterlimit="4.1" class="fill-00c89f"></path></svg>