<svg viewBox="0 0 32 32" xmlns="http://www.w3.org/2000/svg"><path d="M-34 355a1 1 0 0 0 0 2c1.669 0 3 1.331 3 3a1 1 0 0 0 2 0c0-2.75-2.25-5-5-5zM-15 346a1 1 0 0 0-1 1c0 2.75 2.25 5 5 5a1 1 0 0 0 0-2c-1.669 0-3-1.331-3-3a1 1 0 0 0-1-1zM-30 346a1 1 0 0 0-1 1c0 1.669-1.331 3-3 3a1 1 0 0 0 0 2c2.75 0 5-2.25 5-5a1 1 0 0 0-1-1z" style="-inkscape-stroke:none" transform="translate(36 -340)" color="#000000" fill="#0593ff" fill-opacity="1" fill-rule="evenodd" stroke-linecap="round" stroke-linejoin="round" stroke-miterlimit="4.1" class="fill-00c89f"></path><path d="M-32 346c-1.645 0-3 1.355-3 3v9c0 1.645 1.355 3 3 3h16a5.972 5.972 0 0 1-.086-1c0-.341.03-.674.086-1h-16c-.564 0-1-.436-1-1v-9c0-.564.436-1 1-1h19c.564 0 1 .436 1 1v6a5.975 5.975 0 0 1 1-.086c.341 0 .674.03 1 .086v-6c0-1.645-1.355-3-3-3z" style="-inkscape-stroke:none" transform="translate(36 -340)" color="#000000" fill="#8f97a3" fill-opacity="1" fill-rule="evenodd" stroke-linecap="round" stroke-linejoin="round" stroke-miterlimit="4.1" class="fill-002cba"></path><path d="M-11 354c-3.302 0-6 2.698-6 6s2.698 6 6 6 6-2.698 6-6-2.698-6-6-6zm0 2c2.221 0 4 1.779 4 4s-1.779 4-4 4-4-1.779-4-4 1.779-4 4-4z" style="-inkscape-stroke:none" transform="translate(36 -340)" color="#000000" fill="#0593ff" fill-opacity="1" fill-rule="evenodd" stroke-linecap="round" stroke-linejoin="round" stroke-miterlimit="4.1" class="fill-00c89f"></path><path d="M-11 357a1 1 0 0 0-1 1v1h-1a1 1 0 0 0-1 1 1 1 0 0 0 1 1h1v1a1 1 0 0 0 1 1 1 1 0 0 0 1-1v-1h1a1 1 0 0 0 1-1 1 1 0 0 0-1-1h-1v-1a1 1 0 0 0-1-1zM-22.5 349.5c-2.197 0-4 1.803-4 4s1.803 4 4 4 4-1.803 4-4-1.803-4-4-4zm0 2c1.116 0 2 .884 2 2s-.884 2-2 2-2-.884-2-2 .884-2 2-2z" style="-inkscape-stroke:none" transform="translate(36 -340)" color="#000000" fill="#0593ff" fill-opacity="1" fill-rule="evenodd" stroke-linecap="round" stroke-linejoin="round" stroke-miterlimit="4.1" class="fill-00c89f"></path></svg>