<svg viewBox="0 0 32 32" xmlns="http://www.w3.org/2000/svg"><path d="M354 486.014a1 1 0 0 0-.895.554l-3 6.036a1 1 0 0 0-.1.421 1 1 0 0 0-.005.024v19.965a1 1 0 0 0 1 1h26a1 1 0 0 0 1-1v-19.965a1 1 0 0 0 0-.002 1 1 0 0 0-.106-.444l-3-6.035a1 1 0 0 0-.894-.554h-12zm.617 2h6.21l-.655 4.035h-7.559zm8.233 0h4.302l.674 4.035h-5.629zm6.33 0h4.2l2.007 4.035h-5.533zM352 494.049h8v9.965a1 1 0 0 0 1.707.707l3.293-3.293 3.293 3.293a1 1 0 0 0 1.707-.707v-9.965h6v17.965h-24zm10 0h6v7.55l-2.293-2.292a1 1 0 0 0-1.414 0L362 501.6Z" style="-inkscape-stroke:none" transform="translate(-348 -484)" color="#000000" fill="#8f97a3" fill-opacity="1" fill-rule="evenodd" stroke-linecap="round" stroke-linejoin="round" stroke-miterlimit="4.1" class="fill-002cba"></path><path d="M355 508.014a1 1 0 0 0-1 1 1 1 0 0 0 1 1h6a1 1 0 0 0 1-1 1 1 0 0 0-1-1z" style="-inkscape-stroke:none" transform="translate(-348 -484)" color="#000000" fill="#0593ff" fill-opacity="1" fill-rule="evenodd" stroke-linecap="round" stroke-linejoin="round" stroke-miterlimit="4.1" class="fill-00c89f"></path></svg>