<svg viewBox="0 0 32 32" xmlns="http://www.w3.org/2000/svg"><path d="M412 211a1 1 0 0 0-1 1v3.129a9.978 9.978 0 0 0-1.535-.899c-1.1-.522-2.181-.821-3.145-.869-.481-.023-.938.012-1.379.164-.44.153-.898.465-1.136.965-.238.5-.191 1.056-.032 1.494.16.439.42.813.743 1.172.645.718 1.559 1.366 2.658 1.889 1.1.523 2.18.824 3.144.871.233.011.46.009.682-.014V221h-1c-2.75 0-5 2.25-5 5a1 1 0 0 0 1 1h12a1 1 0 0 0 1-1c0-2.75-2.25-5-5-5h-1v-1.098c.222.023.447.025.68.014.963-.047 2.045-.346 3.144-.87 1.1-.522 2.016-1.172 2.66-1.89.323-.359.583-.735.743-1.174.16-.438.206-.991-.032-1.492-.238-.5-.696-.814-1.136-.967-.44-.152-.897-.187-1.38-.164-.963.048-2.045.349-3.144.871a9.979 9.979 0 0 0-1.535.899V212a1 1 0 0 0-1-1zm-5.941 4.355c.049-.002.103 0 .164.002.603.03 1.487.254 2.382.68.896.426 1.626.971 2.03 1.42.162.18.23.309.283.416-.117.026-.26.057-.502.045-.603-.03-1.487-.252-2.383-.678-.896-.426-1.628-.97-2.031-1.42a1.672 1.672 0 0 1-.281-.418c.087-.02.19-.042.338-.047zm11.882 0c.147.005.249.028.336.047a1.646 1.646 0 0 1-.279.416c-.403.45-1.137.996-2.033 1.422-.896.426-1.78.648-2.383.678a1.648 1.648 0 0 1-.498-.045c.053-.107.118-.236.28-.416.403-.449 1.133-.994 2.029-1.42.895-.426 1.781-.65 2.384-.68.06-.003.115-.004.164-.002zM410 223h4c1.276 0 2.15.887 2.588 2h-9.176c.437-1.113 1.312-2 2.588-2z" style="-inkscape-stroke:none" transform="translate(-396 -196)" color="#000000" fill="#8f97a3" fill-opacity="1" fill-rule="evenodd" stroke-linecap="round" stroke-linejoin="round" stroke-miterlimit="4.1" class="fill-002cba"></path><path d="M412 197c-4.406 0-8 3.594-8 8 0 4.406 3.594 8 8 8 4.406 0 8-3.594 8-8 0-4.406-3.594-8-8-8zm0 2c3.326 0 6 2.674 6 6s-2.674 6-6 6-6-2.674-6-6 2.674-6 6-6z" style="-inkscape-stroke:none" transform="translate(-396 -196)" color="#000000" fill="#0593ff" fill-opacity="1" fill-rule="evenodd" stroke-linecap="round" stroke-linejoin="round" stroke-miterlimit="4.1" class="fill-00c89f"></path><path d="M412 200a1 1 0 0 0-1 1v.02c-.891.409-1.5 1.344-1.5 2.38 0 1.39 1.095 2.6 2.5 2.6.252 0 .5.223.5.6s-.248.6-.5.6c-.168 0-.318-.091-.418-.274a1 1 0 0 0-1.36-.397 1 1 0 0 0-.394 1.358c.26.475.673.865 1.172 1.093v.02a1 1 0 1 0 2 0v-.02c.891-.41 1.5-1.344 1.5-2.38 0-1.39-1.095-2.6-2.5-2.6-.252 0-.5-.223-.5-.6s.248-.6.5-.6c.169 0 .32.092.42.276a1 1 0 0 0 1.355.403 1 1 0 0 0 .403-1.358A2.555 2.555 0 0 0 413 201.02V201a1 1 0 0 0-1-1z" style="-inkscape-stroke:none" transform="translate(-396 -196)" color="#000000" fill="#0593ff" fill-opacity="1" fill-rule="evenodd" stroke-linecap="round" stroke-linejoin="round" stroke-miterlimit="4.1" class="fill-00c89f"></path></svg>