<svg viewBox="0 0 500 500" xml:space="preserve" xmlns="http://www.w3.org/2000/svg"><path d="M8.47 348.81c0-5.402 4.99-9.423 10.269-8.273l47.37 10.315c3.772.915 7.727.735 11.401-.52l30.384-10.38a17.216 17.216 0 0 1 9.748-.408l55.486 13.906a7.842 7.842 0 0 1-1.39 15.432l-38.604 2.547c-3.087.204-3.91 4.364-1.133 5.727l16.173 7.942 43.978 14.399L237.386 391c4.696-.882 9.037 2.72 9.037 7.497a7.626 7.626 0 0 1-4.649 7.022l-48.267 20.482c-1.531.65-3.2.906-4.855.745l-79.74-9.397a19.796 19.796 0 0 1-7.854-2.676L70.383 396.31a20.382 20.382 0 0 0-9.3-2.862l-44.634-2.576a8.467 8.467 0 0 1-7.979-8.453V348.81z" fill="#8f97a3" class="fill-4384ec fill-8f97a3"></path><path fill="#8f97a3" d="M148.134 218.801h209.109v110.364H148.134z" class="fill-e9b142 fill-4384ec fill-8f97a3"></path><path fill="#4384ec" d="M148.134 195.314h209.109v110.364H148.134z" class="fill-fecc5d fill-f2f2f2"></path><path d="M327.347 292H178.03c-1.381 0-2.5-.939-2.5-2.32 0-5.64-5.172-10.497-10.764-10.497-1.381 0-2.767-1.029-2.767-2.41v-52.555c0-1.381 1.386-2.5 2.767-2.5 5.788 0 10.63-4.602 10.63-10.038 0-1.381 1.252-2.68 2.633-2.68h149.316c1.381 0 2.5 1.299 2.5 2.68 0 5.527 4.208 9.948 9.92 9.948 1.381 0 2.233 1.209 2.233 2.59v52.555c0 1.381-.853 2.5-2.233 2.5-5.521 0-10.053 4.668-10.053 10.407.001 1.381-.984 2.32-2.365 2.32zm-147.026-5h144.73c1.067-6 5.949-11.382 11.949-12.506v-47.968c-6-1.005-10.898-5.526-11.948-12.526H180.311c-1.105 7-6.311 11.509-13.311 12.525v47.961c7 1.104 12.23 6.514 13.321 12.514z" fill="#FFFFFF" class="fill-ffffff"></path><ellipse cx="252.688" cy="250.496" fill="#8f97a3" rx="28.726" ry="22.487" class="fill-e9b142 fill-4384ec fill-8f97a3"></ellipse><g fill="#4384ec" class="fill-f2f2f2"><path d="M248.5 141.861a7.5 7.5 0 0 1-7.5-7.5v-53a7.5 7.5 0 0 1 15 0v53a7.5 7.5 0 0 1-7.5 7.5zM165.828 165.937a7.486 7.486 0 0 1-5.771-2.705l-30.923-37.183a7.5 7.5 0 0 1 11.533-9.591l30.923 37.183a7.5 7.5 0 0 1-5.762 12.296zM115.337 223.298a7.503 7.503 0 0 1-2.141-.313l-32.782-9.75a7.5 7.5 0 0 1 4.276-14.378l32.782 9.75a7.5 7.5 0 0 1-2.135 14.691zM339.548 165.937a7.5 7.5 0 0 1-5.763-12.295l30.923-37.183a7.501 7.501 0 0 1 10.562-.971 7.5 7.5 0 0 1 .971 10.562l-30.923 37.184a7.486 7.486 0 0 1-5.77 2.703zM390.039 223.298a7.5 7.5 0 0 1-2.135-14.691l32.782-9.75a7.5 7.5 0 0 1 4.276 14.378l-32.782 9.75a7.503 7.503 0 0 1-2.141.313z"></path></g><path d="M148.173 385.099 132 377.157c-2.777-1.363-1.954-5.524 1.133-5.727l34.437-2.273-36.838-4.638a27.173 27.173 0 0 0-18.074 4.095l-3.621 2.325c-2.382 1.53-2.066 5.106.547 6.194l23.511 9.79a15.86 15.86 0 0 0 5.149 1.191l23.459 1.413-13.53-4.428z" fill="#8f97a3" class="fill-2c6cd3"></path><path d="M493.482 348.81c0-5.402-4.99-9.423-10.269-8.273l-47.37 10.315a20.395 20.395 0 0 1-11.401-.52l-30.384-10.38a17.216 17.216 0 0 0-9.748-.408l-55.486 13.906a7.842 7.842 0 0 0 1.39 15.432l38.604 2.547c3.087.204 3.91 4.364 1.133 5.727l-16.173 7.942-43.978 14.399L264.567 391c-4.696-.882-9.037 2.72-9.037 7.497a7.626 7.626 0 0 0 4.649 7.022l48.267 20.482c1.531.65 3.2.906 4.855.745l79.74-9.397a19.796 19.796 0 0 0 7.854-2.676l30.676-18.365a20.382 20.382 0 0 1 9.3-2.862l44.634-2.576a8.467 8.467 0 0 0 7.979-8.453V348.81z" fill="#8f97a3" class="fill-4384ec fill-8f97a3"></path><path d="m353.779 385.099 16.173-7.942c2.777-1.363 1.954-5.524-1.133-5.727l-34.437-2.273 36.838-4.638a27.173 27.173 0 0 1 18.074 4.095l3.621 2.325c2.382 1.53 2.066 5.106-.547 6.194l-23.511 9.79a15.86 15.86 0 0 1-5.149 1.191l-23.459 1.413 13.53-4.428z" fill="#8f97a3" class="fill-2c6cd3"></path></svg>