<svg viewBox="0 0 32 32" xmlns="http://www.w3.org/2000/svg"><path d="M-20 491c-2.75 0-5 2.25-5 5s2.25 5 5 5 5-2.25 5-5-2.25-5-5-5zm0 2c1.669 0 3 1.331 3 3s-1.331 3-3 3-3-1.331-3-3 1.331-3 3-3z" style="-inkscape-stroke:none" transform="translate(36 -484)" color="#000000" fill="#8f97a3" fill-opacity="1" fill-rule="evenodd" stroke-linecap="round" stroke-linejoin="round" stroke-miterlimit="4.1" class="fill-00c89f"></path><path d="M-20 499c-4.959 0-9 4.041-9 9a1 1 0 0 0 0 .006c.006.967.167 1.928.479 2.844a1 1 0 0 0 1.269.625 1 1 0 0 0 .625-1.27A7 7 0 0 1-27 508v-.002A6.985 6.985 0 0 1-20 501a6.985 6.985 0 0 1 7 6.998 6.996 6.996 0 0 1-.373 2.207 1 1 0 0 0 .625 1.27 1 1 0 0 0 1.27-.625 9.003 9.003 0 0 0 .478-2.844 1 1 0 0 0 0-.006c0-4.959-4.041-9-9-9z" style="-inkscape-stroke:none" transform="translate(36 -484)" color="#000000" fill="#8f97a3" fill-opacity="1" fill-rule="evenodd" stroke-linecap="round" stroke-linejoin="round" stroke-miterlimit="4.1" class="fill-00c89f"></path><path d="M-20 486c-7.72 0-14 6.28-14 14s6.28 14 14 14 14-6.28 14-14-6.28-14-14-14zm0 2c6.64 0 12 5.36 12 12s-5.36 12-12 12-12-5.36-12-12 5.36-12 12-12z" style="-inkscape-stroke:none" transform="translate(36 -484)" color="#000000" fill="#0593ff" fill-opacity="1" fill-rule="evenodd" stroke-linecap="round" stroke-linejoin="round" stroke-miterlimit="4.1" class="fill-002cba"></path></svg>